<svg width="143" height="22" viewBox="0 0 143 22" fill="none" xmlns="http://www.w3.org/2000/svg">
<g clip-path="url(#clip0_3_911)">
<path d="M9.69944 20.6403C15.0563 20.6403 19.3989 16.2977 19.3989 10.9409C19.3989 5.58404 15.0563 1.24146 9.69944 1.24146C4.34259 1.24146 0 5.58404 0 10.9409C0 16.2977 4.34259 20.6403 9.69944 20.6403Z" fill="#E7D8F6"/>
<path d="M13.1824 16.547L11.9574 17.7928L10.7324 16.547H5.315C4.99027 16.547 4.67841 16.415 4.45014 16.1832C4.22187 15.9514 4.09326 15.6327 4.09326 15.3044V6.57736C4.09326 5.89169 4.63983 5.33478 5.315 5.33478H13.9057C14.5809 5.33478 15.1275 5.89169 15.1275 6.57736V15.3044C15.1275 15.6327 14.9989 15.9514 14.7706 16.1832C14.5423 16.415 14.2305 16.547 13.9057 16.547H13.1856H13.1824ZM13.8993 15.3012V6.58058H5.31821V15.3012H11.2404L11.9574 16.0319L12.6744 15.3012H13.8993V15.3012ZM7.82278 10.3759C8.06713 10.3759 8.30183 10.2761 8.47223 10.1023C8.64584 9.92846 8.7423 9.69025 8.7423 9.44238C8.7423 9.1945 8.64584 8.95629 8.47223 8.78246C8.29861 8.60862 8.06713 8.50883 7.82278 8.50883C7.57843 8.50883 7.34373 8.60862 7.17333 8.78246C6.99971 8.95629 6.90326 9.1945 6.90326 9.44238C6.90326 9.69025 6.99971 9.92846 7.17333 10.1023C7.34694 10.2761 7.57843 10.3759 7.82278 10.3759ZM12.1728 11.3062C12.549 11.4736 12.9091 11.6764 13.2467 11.9147C12.8576 12.5263 12.3239 13.0317 11.6938 13.3794C11.0636 13.727 10.3595 13.9105 9.63931 13.9105C8.16679 13.9105 6.87111 13.1572 6.09627 12.0112C6.42742 11.7634 6.78109 11.5477 7.15404 11.3738C7.43697 11.773 7.80992 12.0982 8.24396 12.3235C8.67478 12.5488 9.15383 12.6647 9.63931 12.6647C10.6906 12.6647 11.6198 12.1271 12.1728 11.3062V11.3062ZM12.504 10.0637H9.77113V8.81787H12.504V10.0637Z" fill="#3A3A3A"/>
<path d="M29.8815 17.3708C28.7899 17.3708 27.8059 17.1498 26.9296 16.7079C26.0533 16.2584 25.3441 15.5843 24.802 14.6854C24.2673 13.779 24 12.7116 24 11.4831C24 9.70787 24.531 8.29588 25.5929 7.24719C26.6623 6.19101 28.0844 5.66292 29.8592 5.66292C30.5647 5.66292 31.2108 5.75281 31.7974 5.93258C32.3841 6.11236 32.8668 6.34831 33.2455 6.64045C33.6317 6.93258 33.9584 7.27341 34.2258 7.66292C34.4931 8.05243 34.6825 8.45318 34.7939 8.86517C34.9127 9.26966 34.9721 9.68165 34.9721 10.1011V10.1685H27.8542V10.5618C27.8542 11.2959 27.9656 11.9363 28.1883 12.4831C28.4185 13.03 28.723 13.4532 29.1018 13.7528C29.4879 14.0524 29.9001 14.2734 30.3382 14.4157C30.7763 14.5506 31.2405 14.618 31.7306 14.618C32.2207 14.618 32.6663 14.5506 33.0673 14.4157C33.4757 14.2809 33.7988 14.1049 34.0364 13.8876C34.2815 13.6704 34.4671 13.4757 34.5934 13.3034C34.727 13.1311 34.831 12.9625 34.9053 12.7978L35.0167 12.8427C34.9424 13.2172 34.8496 13.5768 34.7382 13.9213C34.6268 14.2584 34.4411 14.6479 34.1812 15.0899C33.9213 15.5318 33.6168 15.9139 33.2678 16.236C32.9188 16.5506 32.4509 16.8202 31.8643 17.0449C31.2776 17.2622 30.6167 17.3708 29.8815 17.3708ZM27.8542 9.94382H31.2071C31.1774 7.27715 30.6093 5.94382 29.5028 5.94382C28.4705 5.94382 27.921 7.27715 27.8542 9.94382Z" fill="white"/>
<path d="M40.3078 17.1685L36.1194 7.83146C35.9709 7.50187 35.8038 7.20974 35.6182 6.95506C35.44 6.70037 35.1726 6.40824 34.8162 6.07865V5.98876H41.4997V6.07865C40.8907 6.59551 40.5863 7.08614 40.5863 7.55056C40.5863 7.81273 40.6939 8.19476 40.9093 8.69663C40.9613 8.80899 41.0355 8.97753 41.1321 9.20225C41.236 9.42697 41.4625 9.93258 41.8116 10.7191C42.1606 11.5056 42.5727 12.427 43.048 13.4831C43.2634 12.9513 43.5307 12.2996 43.85 11.5281C44.1694 10.7566 44.4033 10.1798 44.5518 9.79775C44.7078 9.40824 44.8451 9.04869 44.964 8.7191C45.0605 8.4794 45.1088 8.27341 45.1088 8.10112C45.1088 8.01124 45.0976 7.92135 45.0754 7.83146C45.0605 7.74157 45.0382 7.66292 45.0085 7.59551C44.9862 7.5206 44.9417 7.4382 44.8748 7.34831C44.8154 7.25094 44.7672 7.17603 44.73 7.1236C44.6929 7.06367 44.6224 6.98127 44.5184 6.8764C44.4219 6.76405 44.3476 6.68539 44.2956 6.64045C44.2436 6.58802 44.1508 6.49813 44.0171 6.37079C43.8909 6.23596 43.7981 6.13858 43.7387 6.07865V5.98876H47.3589V6.07865C46.6088 6.88015 46.1262 7.41948 45.9108 7.69663C45.7029 7.97378 45.4949 8.35581 45.287 8.8427L41.7782 17.1685H40.3078Z" fill="white"/>
<path d="M52.6054 17.3708C51.5138 17.3708 50.5298 17.1498 49.6536 16.7079C48.7773 16.2584 48.0681 15.5843 47.526 14.6854C46.9913 13.779 46.724 12.7116 46.724 11.4831C46.724 9.70787 47.2549 8.29588 48.3169 7.24719C49.3862 6.19101 50.8083 5.66292 52.5832 5.66292C53.2887 5.66292 53.9347 5.75281 54.5214 5.93258C55.1081 6.11236 55.5908 6.34831 55.9695 6.64045C56.3556 6.93258 56.6824 7.27341 56.9497 7.66292C57.2171 8.05243 57.4064 8.45318 57.5178 8.86517C57.6367 9.26966 57.6961 9.68165 57.6961 10.1011V10.1685H50.5781V10.5618C50.5781 11.2959 50.6895 11.9363 50.9123 12.4831C51.1425 13.03 51.447 13.4532 51.8257 13.7528C52.2119 14.0524 52.624 14.2734 53.0622 14.4157C53.5003 14.5506 53.9644 14.618 54.4546 14.618C54.9447 14.618 55.3902 14.5506 55.7913 14.4157C56.1997 14.2809 56.5227 14.1049 56.7604 13.8876C57.0054 13.6704 57.1911 13.4757 57.3173 13.3034C57.451 13.1311 57.555 12.9625 57.6292 12.7978L57.7406 12.8427C57.6664 13.2172 57.5735 13.5768 57.4621 13.9213C57.3507 14.2584 57.1651 14.6479 56.9052 15.0899C56.6453 15.5318 56.3408 15.9139 55.9918 16.236C55.6427 16.5506 55.1749 16.8202 54.5882 17.0449C54.0016 17.2622 53.3406 17.3708 52.6054 17.3708ZM50.5781 9.94382H53.931C53.9013 7.27715 53.3332 5.94382 52.2267 5.94382C51.1945 5.94382 50.645 7.27715 50.5781 9.94382Z" fill="white"/>
<path d="M58.2307 17.1461V17.0562C58.5798 16.809 58.8248 16.603 58.9659 16.4382C59.1145 16.2734 59.2221 16.0449 59.289 15.7528C59.3632 15.4532 59.4004 15.0187 59.4004 14.4494V9.57303C59.4004 8.98876 59.3632 8.53558 59.289 8.21348C59.2221 7.8839 59.1145 7.61798 58.9659 7.41573C58.8248 7.20599 58.5872 6.9588 58.253 6.67416V6.58427C60.0056 6.49438 61.7804 6.17978 63.5776 5.64045V7.89888C63.7781 7.3221 64.1457 6.80899 64.6803 6.35955C65.2224 5.91011 65.9316 5.68539 66.8079 5.68539C67.1421 5.68539 67.4688 5.75655 67.7882 5.89888L67.2201 10.2472H67.131C66.678 9.55805 66.2027 8.95131 65.7051 8.42697C65.215 7.90262 64.7992 7.64045 64.4576 7.64045C64.0937 7.64045 63.8226 7.83146 63.6444 8.21348V14.4494C63.6444 14.794 63.6592 15.0824 63.6889 15.3146C63.7187 15.5393 63.7595 15.7341 63.8115 15.8989C63.8709 16.0637 63.9711 16.2135 64.1122 16.3483C64.2533 16.4757 64.3981 16.588 64.5467 16.6854C64.7026 16.7828 64.9254 16.9064 65.215 17.0562V17.1461H58.2307Z" fill="white"/>
<path d="M71.1745 22L69.3254 19.5393L69.3922 19.4719C69.8526 19.5468 70.2722 19.5843 70.6509 19.5843C71.5198 19.5843 72.2995 19.4232 72.9902 19.1011C73.6882 18.779 74.2006 18.2734 74.5274 17.5843C74.5348 17.5768 74.5422 17.5618 74.5497 17.5393C74.5571 17.5169 74.5645 17.5019 74.5719 17.4944L69.5816 7.83146C69.24 7.17978 68.7833 6.59551 68.2115 6.07865V5.98876H75.3071V6.07865C74.6239 6.57303 74.2823 7.04869 74.2823 7.50562C74.2823 7.7603 74.3789 8.07491 74.5719 8.44944L76.7664 12.7528C76.9075 12.4232 77.1228 11.9363 77.4124 11.2921C77.7095 10.6479 78.0474 9.86142 78.4261 8.93258C78.5226 8.71536 78.5709 8.50187 78.5709 8.29213C78.5709 7.61049 78.1291 6.87266 77.2453 6.07865V5.98876H80.9436V6.07865C80.899 6.1236 80.8025 6.22097 80.6539 6.37079C80.5054 6.5206 80.4052 6.62172 80.3532 6.67416C80.3012 6.72659 80.2084 6.82397 80.0747 6.96629C79.9485 7.10112 79.8556 7.20974 79.7962 7.29213C79.7368 7.37453 79.6514 7.49064 79.54 7.64045C79.4286 7.78277 79.3358 7.9176 79.2615 8.04494C79.1873 8.17228 79.1019 8.3221 79.0053 8.49438C78.9162 8.65918 78.8308 8.83521 78.7491 9.02247C77.4941 11.8315 76.2243 14.5993 74.9395 17.3258C74.5905 18.0674 74.1709 18.7678 73.6808 19.427C73.1981 20.0936 72.7563 20.618 72.3552 21C71.9617 21.382 71.5681 21.7154 71.1745 22Z" fill="white"/>
<path d="M85.9785 17.3708C85.2507 17.3708 84.5527 17.2509 83.8843 17.0112C83.2234 16.764 82.6219 16.4045 82.0798 15.9326C81.5376 15.4607 81.1032 14.839 80.7765 14.0674C80.4571 13.2959 80.2975 12.427 80.2975 11.4607C80.2975 10.6891 80.4015 9.98502 80.6094 9.34831C80.8173 8.70412 81.0995 8.16105 81.456 7.7191C81.8124 7.26966 82.232 6.89139 82.7147 6.58427C83.2048 6.27715 83.7209 6.05243 84.263 5.91011C84.8126 5.7603 85.3844 5.68539 85.9785 5.68539C86.6023 5.68539 87.1778 5.76405 87.705 5.92135C88.2323 6.07865 88.6779 6.29588 89.0418 6.57303C89.4131 6.8427 89.7175 7.11236 89.9552 7.38202C90.2002 7.64419 90.4119 7.92884 90.5901 8.23596L88.0058 10.2247L87.9612 10.2022C87.9167 9.70037 87.8424 9.20974 87.7385 8.73034C87.6419 8.25094 87.5083 7.79775 87.3375 7.37079C87.1741 6.94382 86.9624 6.59925 86.7025 6.33708C86.45 6.07491 86.1716 5.94382 85.8671 5.94382C85.3695 5.94382 84.9574 6.28464 84.6306 6.96629C84.3113 7.64045 84.1516 8.56554 84.1516 9.74157C84.1516 11.2846 84.4561 12.4869 85.0651 13.3483C85.674 14.2097 86.5577 14.6404 87.7162 14.6404C89.2163 14.6404 90.2782 13.9026 90.902 12.427L91.0245 12.4719C90.9503 12.9438 90.8389 13.4007 90.6904 13.8427C90.5493 14.2772 90.3413 14.7154 90.0666 15.1573C89.7992 15.5918 89.4836 15.97 89.1197 16.2921C88.7558 16.6067 88.3029 16.8652 87.7607 17.0674C87.2186 17.2697 86.6245 17.3708 85.9785 17.3708Z" fill="white"/>
<path d="M97.8863 17.3708C96.9951 17.3708 96.182 17.2547 95.4468 17.0225C94.7116 16.7828 94.0692 16.4345 93.5197 15.9775C92.9702 15.5206 92.5432 14.9251 92.2387 14.191C91.9417 13.4569 91.7931 12.618 91.7931 11.6742C91.7931 9.77154 92.3575 8.29963 93.4863 7.25843C94.6225 6.20974 96.1486 5.68539 98.0645 5.68539C98.9556 5.68539 99.7688 5.80524 100.504 6.04494C101.239 6.28464 101.878 6.6367 102.42 7.10112C102.962 7.56554 103.382 8.16479 103.679 8.89888C103.983 9.63296 104.135 10.4719 104.135 11.4157C104.135 13.3184 103.571 14.7865 102.442 15.8202C101.321 16.8539 99.8022 17.3708 97.8863 17.3708ZM98.5212 17.1236C98.8925 17.1236 99.2007 16.8876 99.4458 16.4157C99.6982 15.9438 99.8245 15.191 99.8245 14.1573C99.8245 13.5581 99.7836 12.8427 99.702 12.0112C99.6277 11.1798 99.5052 10.2884 99.3344 9.33708C99.1636 8.38577 98.9074 7.58802 98.5658 6.94382C98.2316 6.29213 97.8454 5.96629 97.4073 5.96629C97.036 5.96629 96.7241 6.20599 96.4716 6.68539C96.2265 7.16479 96.104 7.92135 96.104 8.95506C96.104 9.55431 96.1411 10.2659 96.2154 11.0899C96.2971 11.9139 96.4196 12.8015 96.583 13.7528C96.7538 14.7041 97.0063 15.5056 97.3405 16.1573C97.6821 16.8015 98.0756 17.1236 98.5212 17.1236Z" fill="white"/>
<path d="M114.74 17.3708C114.272 17.3708 113.871 17.2959 113.537 17.1461C113.21 16.9888 112.961 16.7828 112.791 16.5281C112.627 16.2659 112.512 16 112.445 15.7303C112.378 15.4532 112.352 15.1648 112.367 14.8652H112.323C112.152 15.1273 111.951 15.3858 111.721 15.6404C111.498 15.8876 111.216 16.1498 110.875 16.427C110.54 16.7041 110.143 16.9288 109.683 17.1011C109.23 17.2659 108.758 17.3483 108.268 17.3483C107.377 17.3483 106.649 17.0936 106.085 16.5843C105.528 16.0674 105.249 15.412 105.249 14.618C105.249 14.0037 105.428 13.4419 105.784 12.9326C106.14 12.4157 106.657 11.9625 107.332 11.573C108.008 11.176 108.747 10.8315 109.549 10.5393C110.358 10.2472 111.298 9.97004 112.367 9.70787L112.39 7.70787C112.39 7.22846 112.304 6.82397 112.133 6.49438C111.962 6.1573 111.684 5.98876 111.298 5.98876C110.971 5.98876 110.67 6.1236 110.396 6.39326C110.128 6.65543 109.905 7.00749 109.727 7.44944C109.556 7.8839 109.412 8.33708 109.293 8.80899C109.181 9.2809 109.096 9.77528 109.037 10.2921L106.118 8.69663C106.289 8.34457 106.519 8.00375 106.809 7.67416C107.098 7.34457 107.47 7.02622 107.923 6.7191C108.383 6.40449 108.955 6.15356 109.638 5.96629C110.321 5.77903 111.071 5.68539 111.888 5.68539C112.475 5.68539 113.002 5.73783 113.47 5.8427C113.938 5.94757 114.328 6.0824 114.64 6.24719C114.952 6.41199 115.223 6.62172 115.453 6.8764C115.683 7.1236 115.858 7.37079 115.976 7.61798C116.103 7.86517 116.199 8.14607 116.266 8.46067C116.34 8.76779 116.385 9.04494 116.4 9.29213C116.414 9.53933 116.418 9.80899 116.411 10.1011L116.299 15.0337C116.299 15.5356 116.496 15.7865 116.89 15.7865C117.105 15.7865 117.298 15.7041 117.469 15.5393C117.64 15.3745 117.773 15.1873 117.87 14.9775L117.981 15.0112C117.885 15.3109 117.751 15.5918 117.58 15.8539C117.41 16.1161 117.194 16.367 116.934 16.6067C116.682 16.839 116.366 17.0225 115.987 17.1573C115.609 17.2996 115.193 17.3708 114.74 17.3708ZM110.774 15.3933C111.346 15.3933 111.847 15.0861 112.278 14.4719L112.367 9.96629C111.394 10.2434 110.689 10.6517 110.251 11.191C109.82 11.7303 109.605 12.4644 109.605 13.3933C109.605 14.7266 109.995 15.3933 110.774 15.3933Z" fill="white"/>
<path d="M123.852 17.3708C123.124 17.3708 122.426 17.2509 121.758 17.0112C121.097 16.764 120.495 16.4045 119.953 15.9326C119.411 15.4607 118.976 14.839 118.65 14.0674C118.33 13.2959 118.171 12.427 118.171 11.4607C118.171 10.6891 118.275 9.98502 118.483 9.34831C118.691 8.70412 118.973 8.16105 119.329 7.7191C119.686 7.26966 120.105 6.89139 120.588 6.58427C121.078 6.27715 121.594 6.05243 122.136 5.91011C122.686 5.7603 123.258 5.68539 123.852 5.68539C124.476 5.68539 125.051 5.76405 125.578 5.92135C126.106 6.07865 126.551 6.29588 126.915 6.57303C127.286 6.8427 127.591 7.11236 127.828 7.38202C128.073 7.64419 128.285 7.92884 128.463 8.23596L125.879 10.2247L125.835 10.2022C125.79 9.70037 125.716 9.20974 125.612 8.73034C125.515 8.25094 125.382 7.79775 125.211 7.37079C125.047 6.94382 124.836 6.59925 124.576 6.33708C124.323 6.07491 124.045 5.94382 123.74 5.94382C123.243 5.94382 122.831 6.28464 122.504 6.96629C122.185 7.64045 122.025 8.56554 122.025 9.74157C122.025 11.2846 122.329 12.4869 122.938 13.3483C123.547 14.2097 124.431 14.6404 125.589 14.6404C127.09 14.6404 128.151 13.9026 128.775 12.427L128.898 12.4719C128.824 12.9438 128.712 13.4007 128.564 13.8427C128.423 14.2772 128.215 14.7154 127.94 15.1573C127.672 15.5918 127.357 15.97 126.993 16.2921C126.629 16.6067 126.176 16.8652 125.634 17.0674C125.092 17.2697 124.498 17.3708 123.852 17.3708Z" fill="white"/>
<path d="M129.009 17.1461V17.0562C129.358 16.809 129.603 16.603 129.744 16.4382C129.893 16.2734 130.001 16.0449 130.067 15.7528C130.142 15.4532 130.179 15.0187 130.179 14.4494V4.2809C130.179 3.29213 130.116 2.6367 129.989 2.31461C129.871 1.98502 129.596 1.61798 129.165 1.21348C129.15 1.19101 129.135 1.17603 129.121 1.16854C129.113 1.15356 129.098 1.13858 129.076 1.1236C129.061 1.10861 129.046 1.09363 129.031 1.07865V0.988764C130.962 0.838951 132.759 0.509363 134.423 0V8.01124C135.507 6.46067 136.836 5.68539 138.411 5.68539C138.671 5.68539 138.93 5.71161 139.19 5.76405C139.458 5.80899 139.755 5.91011 140.082 6.06742C140.408 6.21723 140.694 6.41948 140.939 6.67416C141.192 6.92135 141.403 7.26966 141.574 7.7191C141.745 8.16854 141.83 8.68914 141.83 9.2809V14.4494C141.83 15.0112 141.868 15.4419 141.942 15.7416C142.016 16.0412 142.124 16.2734 142.265 16.4382C142.406 16.603 142.651 16.809 143 17.0562V17.1461H136.45V17.0562C136.799 16.809 137.044 16.603 137.185 16.4382C137.326 16.2734 137.43 16.0449 137.497 15.7528C137.572 15.4532 137.609 15.0187 137.609 14.4494C137.623 11.6554 137.631 10.191 137.631 10.0562C137.631 9.04494 137.505 8.33708 137.252 7.93258C137 7.52809 136.632 7.32584 136.149 7.32584C135.496 7.32584 134.92 7.70787 134.423 8.47191V14.4494C134.423 15.0187 134.456 15.4532 134.523 15.7528C134.597 16.0449 134.705 16.2734 134.846 16.4382C134.987 16.603 135.232 16.809 135.581 17.0562V17.1461H129.009Z" fill="white"/>
</g>
<defs>
<clipPath id="clip0_3_911">
<rect width="143" height="22" fill="white"/>
</clipPath>
</defs>
</svg>
