<svg width="16" height="16" viewBox="0 0 16 16" fill="none" xmlns="http://www.w3.org/2000/svg">
<g clip-path="url(#clip0_1_881)">
<path d="M8 16C12.4183 16 16 12.4183 16 8C16 3.58172 12.4183 0 8 0C3.58172 0 0 3.58172 0 8C0 12.4183 3.58172 16 8 16Z" fill="#E7D8F6"/>
<path d="M10.8727 12.6239L9.86236 13.6514L8.85203 12.6239H4.38378C4.11595 12.6239 3.85872 12.515 3.67045 12.3238C3.48217 12.1327 3.3761 11.8698 3.3761 11.599V4.40103C3.3761 3.83549 3.8269 3.37616 4.38378 3.37616H11.4693C12.0262 3.37616 12.477 3.83549 12.477 4.40103V11.599C12.477 11.8698 12.3709 12.1327 12.1827 12.3238C11.9944 12.515 11.7372 12.6239 11.4693 12.6239H10.8753H10.8727ZM11.464 11.5963V4.40368H4.38643V11.5963H9.27101L9.86236 12.1991L10.4537 11.5963H11.464V11.5963ZM6.45217 7.53404C6.6537 7.53404 6.84728 7.45174 6.98783 7.30836C7.13102 7.16498 7.21058 6.96851 7.21058 6.76406C7.21058 6.55962 7.13102 6.36314 6.98783 6.21977C6.84463 6.07639 6.6537 5.99409 6.45217 5.99409C6.25063 5.99409 6.05705 6.07639 5.91651 6.21977C5.77331 6.36314 5.69376 6.55962 5.69376 6.76406C5.69376 6.96851 5.77331 7.16498 5.91651 7.30836C6.0597 7.45174 6.25063 7.53404 6.45217 7.53404ZM10.04 8.30137C10.3503 8.43943 10.6473 8.6067 10.9257 8.80318C10.6049 9.30765 10.1647 9.7245 9.64491 10.0112C9.12516 10.298 8.54442 10.4493 7.95042 10.4493C6.73591 10.4493 5.66724 9.82805 5.02816 8.88283C5.30129 8.67839 5.59299 8.5005 5.9006 8.35712C6.13395 8.68636 6.44156 8.95452 6.79955 9.14038C7.15489 9.32623 7.55 9.42182 7.95042 9.42182C8.81756 9.42182 9.58392 8.97842 10.04 8.30137V8.30137ZM10.3132 7.2765H8.05915V6.24898H10.3132V7.2765Z" fill="#3A3A3A"/>
</g>
<defs>
<clipPath id="clip0_1_881">
<rect width="16" height="16" fill="white"/>
</clipPath>
</defs>
</svg>
